<svg width="96" height="24" viewBox="0 0 96 24" fill="none" xmlns="http://www.w3.org/2000/svg">
<path d="M6.22159 19.1989C5.05682 19.1989 4.05303 18.9763 3.21023 18.5312C2.37216 18.0814 1.72585 17.4375 1.27131 16.5994C0.821496 15.7566 0.596591 14.7481 0.596591 13.5739C0.596591 12.447 0.823864 11.4621 1.27841 10.6193C1.73295 9.77651 2.37453 9.12074 3.20312 8.65199C4.03172 8.18324 5.00947 7.94886 6.13636 7.94886C6.96023 7.94886 7.70597 8.0767 8.37358 8.33239C9.04119 8.58807 9.61174 8.95975 10.0852 9.44744C10.5587 9.9304 10.9233 10.5175 11.179 11.2088C11.4347 11.9001 11.5625 12.679 11.5625 13.5455V14.4545H1.81818V12.2955H7.95455C7.94981 11.983 7.86932 11.7083 7.71307 11.4716C7.56155 11.2301 7.35559 11.0431 7.09517 10.9105C6.83949 10.7732 6.5483 10.7045 6.22159 10.7045C5.90436 10.7045 5.61316 10.7732 5.34801 10.9105C5.08286 11.0431 4.86979 11.2277 4.70881 11.4645C4.55256 11.7012 4.4697 11.9782 4.46023 12.2955V14.625C4.46023 14.9754 4.53362 15.2879 4.6804 15.5625C4.82718 15.8371 5.03788 16.0526 5.3125 16.2088C5.58712 16.3651 5.91856 16.4432 6.30682 16.4432C6.5767 16.4432 6.82292 16.4053 7.04545 16.3295C7.27273 16.2538 7.46686 16.1449 7.62784 16.0028C7.78883 15.8561 7.9072 15.6809 7.98295 15.4773H11.5625C11.4394 16.2348 11.1482 16.893 10.6889 17.4517C10.2296 18.0057 9.62121 18.4366 8.86364 18.7443C8.1108 19.0473 7.23011 19.1989 6.22159 19.1989ZM13.2759 19V16.8409L18.0487 11.1307V11.0739H13.4464V8.09091H22.6793V10.4773L18.3327 15.9602V16.017H22.8498V19H13.2759ZM32.1768 11.7273V14.6818H25.3587V11.7273H32.1768ZM34.5099 8.09091H38.4304V19.3693C38.4304 20.3258 38.2292 21.0739 37.8267 21.6136C37.429 22.1534 36.8703 22.5346 36.1506 22.7571C35.4309 22.9796 34.5904 23.0909 33.6293 23.0909C33.4872 23.0909 33.357 23.0885 33.2386 23.0838C33.1155 23.0791 32.9806 23.072 32.8338 23.0625V20.1648C32.9285 20.1742 33.0114 20.1813 33.0824 20.1861C33.1487 20.1908 33.2173 20.1932 33.2884 20.1932C33.7571 20.1932 34.0767 20.1198 34.2472 19.973C34.4223 19.831 34.5099 19.6013 34.5099 19.2841V8.09091ZM36.4702 6.95455C35.9399 6.95455 35.4853 6.77936 35.1065 6.42898C34.7277 6.0786 34.5384 5.6572 34.5384 5.16477C34.5384 4.67235 34.7277 4.25095 35.1065 3.90057C35.4853 3.55019 35.9399 3.375 36.4702 3.375C37.0052 3.375 37.4598 3.55019 37.8338 3.90057C38.2126 4.25095 38.402 4.67235 38.402 5.16477C38.402 5.6572 38.2126 6.0786 37.8338 6.42898C37.4598 6.77936 37.0052 6.95455 36.4702 6.95455ZM45.6836 19.1989C44.4999 19.1989 43.4866 18.9645 42.6438 18.4957C41.801 18.0223 41.1547 17.3641 40.7049 16.5213C40.2551 15.6738 40.0302 14.6913 40.0302 13.5739C40.0302 12.4564 40.2551 11.4763 40.7049 10.6335C41.1547 9.78598 41.801 9.12784 42.6438 8.65909C43.4866 8.18561 44.4999 7.94886 45.6836 7.94886C46.8673 7.94886 47.8806 8.18561 48.7234 8.65909C49.5662 9.12784 50.2125 9.78598 50.6623 10.6335C51.1121 11.4763 51.337 12.4564 51.337 13.5739C51.337 14.6913 51.1121 15.6738 50.6623 16.5213C50.2125 17.3641 49.5662 18.0223 48.7234 18.4957C47.8806 18.9645 46.8673 19.1989 45.6836 19.1989ZM45.712 16.3011C46.0434 16.3011 46.3299 16.1899 46.5714 15.9673C46.8129 15.7448 46.9999 15.4276 47.1325 15.0156C47.265 14.6037 47.3313 14.1136 47.3313 13.5455C47.3313 12.9725 47.265 12.4825 47.1325 12.0753C46.9999 11.6634 46.8129 11.3461 46.5714 11.1236C46.3299 10.901 46.0434 10.7898 45.712 10.7898C45.3616 10.7898 45.061 10.901 44.81 11.1236C44.5591 11.3461 44.3673 11.6634 44.2347 12.0753C44.1022 12.4825 44.0359 12.9725 44.0359 13.5455C44.0359 14.1136 44.1022 14.6037 44.2347 15.0156C44.3673 15.4276 44.5591 15.7448 44.81 15.9673C45.061 16.1899 45.3616 16.3011 45.712 16.3011ZM52.8711 19V4.45455H56.7915V9.99432H56.8484C56.9904 9.625 57.1987 9.28646 57.4734 8.97869C57.748 8.66619 58.0889 8.41761 58.4961 8.23295C58.9033 8.04356 59.3768 7.94886 59.9165 7.94886C60.6362 7.94886 61.3204 8.14062 61.9691 8.52415C62.6225 8.90767 63.1528 9.51136 63.56 10.3352C63.9719 11.1591 64.1779 12.2292 64.1779 13.5455C64.1779 14.8049 63.9814 15.849 63.5884 16.6776C63.2002 17.5062 62.6793 18.1241 62.0259 18.5312C61.3772 18.9384 60.6647 19.142 59.8881 19.142C59.3768 19.142 58.9199 19.0592 58.5174 18.8935C58.1197 18.723 57.7788 18.4934 57.4947 18.2045C57.2153 17.911 56.9999 17.5795 56.8484 17.2102H56.7631V19H52.8711ZM56.7063 13.5455C56.7063 14.0758 56.775 14.535 56.9123 14.9233C57.0543 15.3068 57.2532 15.6051 57.5089 15.8182C57.7693 16.0265 58.0794 16.1307 58.4393 16.1307C58.7991 16.1307 59.1045 16.0289 59.3555 15.8253C59.6112 15.617 59.8053 15.321 59.9379 14.9375C60.0752 14.5492 60.1438 14.0852 60.1438 13.5455C60.1438 13.0057 60.0752 12.544 59.9379 12.1605C59.8053 11.7723 59.6112 11.4763 59.3555 11.2727C59.1045 11.0644 58.7991 10.9602 58.4393 10.9602C58.0794 10.9602 57.7693 11.0644 57.5089 11.2727C57.2532 11.4763 57.0543 11.7723 56.9123 12.1605C56.775 12.544 56.7063 13.0057 56.7063 13.5455ZM67.9492 19.2273C67.4 19.2273 66.9289 19.0355 66.5359 18.652C66.1476 18.2637 65.9558 17.7926 65.9606 17.2386C65.9558 16.6989 66.1476 16.2372 66.5359 15.8537C66.9289 15.4702 67.4 15.2784 67.9492 15.2784C68.4701 15.2784 68.9293 15.4702 69.3271 15.8537C69.7295 16.2372 69.9331 16.6989 69.9379 17.2386C69.9331 17.608 69.8361 17.9441 69.6467 18.2472C69.462 18.5455 69.2205 18.7846 68.9222 18.9645C68.6239 19.1397 68.2996 19.2273 67.9492 19.2273ZM77.3242 19.1989C76.1405 19.1989 75.1272 18.9645 74.2844 18.4957C73.4416 18.0223 72.7953 17.3641 72.3455 16.5213C71.8957 15.6738 71.6708 14.6913 71.6708 13.5739C71.6708 12.4564 71.8957 11.4763 72.3455 10.6335C72.7953 9.78598 73.4416 9.12784 74.2844 8.65909C75.1272 8.18561 76.1405 7.94886 77.3242 7.94886C78.3943 7.94886 79.32 8.14299 80.1012 8.53125C80.8872 8.91477 81.4956 9.45928 81.9265 10.1648C82.3574 10.8655 82.5752 11.6894 82.5799 12.6364H78.9435C78.8915 12.0634 78.7257 11.6278 78.4464 11.3295C78.1718 11.0265 77.8166 10.875 77.381 10.875C77.0401 10.875 76.7418 10.9744 76.4862 11.1733C76.2305 11.3674 76.0316 11.6634 75.8896 12.0611C75.7475 12.4541 75.6765 12.9489 75.6765 13.5455C75.6765 14.142 75.7475 14.6392 75.8896 15.0369C76.0316 15.4299 76.2305 15.7259 76.4862 15.9247C76.7418 16.1188 77.0401 16.2159 77.381 16.2159C77.6699 16.2159 77.9255 16.1496 78.1481 16.017C78.3706 15.8797 78.5505 15.6809 78.6879 15.4205C78.8299 15.1553 78.9151 14.8333 78.9435 14.4545H82.5799C82.5657 15.4157 82.3455 16.2538 81.9194 16.9688C81.4933 17.679 80.8896 18.2282 80.1083 18.6165C79.3318 19.0047 78.4038 19.1989 77.3242 19.1989ZM89.4531 19.1989C88.2694 19.1989 87.2562 18.9645 86.4134 18.4957C85.5705 18.0223 84.9242 17.3641 84.4744 16.5213C84.0246 15.6738 83.7997 14.6913 83.7997 13.5739C83.7997 12.4564 84.0246 11.4763 84.4744 10.6335C84.9242 9.78598 85.5705 9.12784 86.4134 8.65909C87.2562 8.18561 88.2694 7.94886 89.4531 7.94886C90.6368 7.94886 91.6501 8.18561 92.4929 8.65909C93.3357 9.12784 93.982 9.78598 94.4318 10.6335C94.8816 11.4763 95.1065 12.4564 95.1065 13.5739C95.1065 14.6913 94.8816 15.6738 94.4318 16.5213C93.982 17.3641 93.3357 18.0223 92.4929 18.4957C91.6501 18.9645 90.6368 19.1989 89.4531 19.1989ZM89.4815 16.3011C89.813 16.3011 90.0994 16.1899 90.3409 15.9673C90.5824 15.7448 90.7694 15.4276 90.902 15.0156C91.0346 14.6037 91.1009 14.1136 91.1009 13.5455C91.1009 12.9725 91.0346 12.4825 90.902 12.0753C90.7694 11.6634 90.5824 11.3461 90.3409 11.1236C90.0994 10.901 89.813 10.7898 89.4815 10.7898C89.1312 10.7898 88.8305 10.901 88.5795 11.1236C88.3286 11.3461 88.1368 11.6634 88.0043 12.0753C87.8717 12.4825 87.8054 12.9725 87.8054 13.5455C87.8054 14.1136 87.8717 14.6037 88.0043 15.0156C88.1368 15.4276 88.3286 15.7448 88.5795 15.9673C88.8305 16.1899 89.1312 16.3011 89.4815 16.3011Z" fill="#0A65CC"/>
</svg>
